PathFileType	4	(X/Y/Z)	31_2_rein_45_p0_0-308_filt_butterworth.trc
DataRate	CameraRate	NumFrames	NumMarkers	Units	OrigDataRate	OrigDataStartFrame	OrigNumFrames
47.0	47.0	6	27	m	47.0	269	308
Frame#	Time	RHip			RKnee			RAnkle			RBigToe			RSmallToe			RHeel			LHip			LKnee			LAnkle			LBigToe			LSmallToe			LHeel			Neck			Head			Nose			RShoulder			RElbow			RWrist			RThumb			RIndex			RPinky			LShoulder			LElbow			LWrist			LThumb			LIndex			LPinky			
		X1	Y1	Z1	X2	Y2	Z2	X3	Y3	Z3	X4	Y4	Z4	X5	Y5	Z5	X6	Y6	Z6	X7	Y7	Z7	X8	Y8	Z8	X9	Y9	Z9	X10	Y10	Z10	X11	Y11	Z11	X12	Y12	Z12	X13	Y13	Z13	X14	Y14	Z14	X15	Y15	Z15	X16	Y16	Z16	X17	Y17	Z17	X18	Y18	Z18	X19	Y19	Z19	X20	Y20	Z20	X21	Y21	Z21	X22	Y22	Z22	X23	Y23	Z23	X24	Y24	Z24	X25	Y25	Z25	X26	Y26	Z26	X27	Y27	Z27	
269	5.723404255319149	0.2059479418707762	0.4076496584797926	0.8406914616361786	0.17646514489886908	-0.0033944044325412426	0.9046285839003707	0.1232720091786685	-0.454574160226565	0.9656080380383575	0.06333278995068523	-0.41117841287055734	0.6978351615339679	0.13256709577970627	-0.4440308516853946	0.7540691795729619	0.10206753204911943	-0.5184003626235336	1.0196615773827282	-0.030712158426332892	0.3963458080539426	0.9100297689764646	-0.05699525807853201	0.006841634426345722	0.9167298800492907	-0.08097435136504877	-0.4126043168292379	0.9379025643228045	-0.07130619961877777	-0.41888467737883284	0.7535218402584523	-0.12454278911709643	-0.4282299101266889	0.7966783418306668	-0.062305481759138935	-0.4865639107622618	0.997660419968361	0.13930612953486265	1.078140547948224	0.8605268541043083	0.14002964336032275	1.350807294406419	0.8336507866494991	0.12314124142477478	1.21910006822569	0.7450975806525112	0.2948244444287698	0.9663572485837466	0.8633828837997674	0.3247420201802971	0.6642702048549012	0.8029041193437726	0.11902975547881404	0.539472398577679	0.6526546379126683	0.052838695007799336	0.4578953362640868	0.7127030209264129	0.05052961332716054	0.4163579173282559	0.7248449118786013	0.026602916699250384	0.4571023864500392	0.6707163493457656	-0.02776232900342627	0.9774237380362455	0.8946074128060592	-0.07614370347620072	0.6992248035312736	0.8434533016928067	0.038917280607933195	0.5016673473597022	0.7118733167495673	0.08843127158140598	0.43289417849433093	0.709170509542022	0.09710890395399577	0.3938796691491918	0.7227605142839801	0.09213581586725202	0.37325952626310455	0.7223691701675974	
270	5.74468085106383	0.2061197827651083	0.4082873904168757	0.8397020668196495	0.17632480287282318	-0.003696420489798069	0.9053199562934907	0.1232741737616864	-0.45455517220598757	0.9655995167550969	0.06249479346518118	-0.4097696989087477	0.6956734568186795	0.13251646483614576	-0.4440434787431688	0.7540417548680496	0.10206780031641664	-0.5183968866058419	1.019653418835996	-0.03073161841261303	0.39667167658853536	0.9096425308469425	-0.05698990387632901	0.00684482310747192	0.9167317725048721	-0.08097457245594118	-0.4126021541846331	0.9378983195140731	-0.07126207569248734	-0.41904541124510386	0.7537651328372224	-0.1245308878872701	-0.4282594115910205	0.7966900485989186	-0.06224521203532527	-0.4866392333774191	0.9975301521212218	0.13935483954971356	1.078625600406074	0.8605947659927258	0.14005279861505326	1.350917281526404	0.8334814949212787	0.12306222931792682	1.2191540536391685	0.7449940125819393	0.2949803971849686	0.9661166379311873	0.8631294130064964	0.3256848489232439	0.6643702852900393	0.8052769754390849	0.11892606128417163	0.5381336433272164	0.6547722656996025	0.051173488516187485	0.4573689320229687	0.7156285746107389	0.049911762276627566	0.4167897901654147	0.7276104574773586	0.026639215428072596	0.4564504249115183	0.6707321770207252	-0.027765335507978432	0.9774068790757836	0.8946375164364856	-0.07612609330758686	0.6996268042030137	0.8436244242202997	0.038329675123526905	0.5006723475640481	0.7139173901881273	0.08817871973362149	0.4336827052759647	0.7094955021476739	0.09551838236623936	0.3949294921087999	0.7206217804639554	0.0921751341147751	0.37363987994247494	0.7227186793550998	
271	5.76595744680851	0.20623300478705048	0.4088725135772972	0.8388996157557276	0.1761758014489238	-0.00401815062617622	0.9060481545416864	0.12327540365797642	-0.45453851548147833	0.9655924384233532	0.06174700795368697	-0.40853514807307173	0.6937440322767208	0.132448637562685	-0.4440568711812701	0.7540044310794717	0.10206662418855997	-0.5183975557577156	1.0196465645947805	-0.030728477731267197	0.39703056044035423	0.9091357101664933	-0.05698300931371436	0.00684448760338463	0.9167333812421503	-0.08097591619604852	-0.4125957651559423	0.9378938663442457	-0.07128856858812159	-0.41898655018598924	0.75368921103279	-0.12441544093507345	-0.42857181115104265	0.7971363134771213	-0.06220040371166344	-0.48666515093207685	0.9973907068578192	0.13937926168023543	1.0789034216795361	0.8606375960260282	0.14006439613560034	1.351131094056835	0.8333649465246366	0.1230543398188684	1.2190564225575309	0.7450316501888903	0.2951508344124872	0.9659100756104768	0.8634000755975134	0.3267507706032217	0.6646591666823071	0.8078029445355102	0.1190942442323619	0.5370085984452813	0.6564777283041419	0.04785145070531008	0.45738836710611014	0.7174150483715769	0.04894988731067641	0.41756974522433987	0.7290697038901126	0.026618039264293444	0.4560281800321923	0.6706016753214592	-0.02777012272524467	0.9773929352491955	0.8946652230264956	-0.07613746746049388	0.7000239568912996	0.8437147243632916	0.03755216139041147	0.500501428252227	0.7141755666551364	0.08792330094756377	0.434891788102805	0.7090136960074058	0.09443438921306968	0.3957347595597644	0.7194760194028091	0.09213376325650187	0.3740188634885596	0.722871155654334	
272	5.787234042553192	0.20632071325804524	0.4093251294054834	0.8381965708577905	0.17607514715348446	-0.004242641728575747	0.9065650799095762	0.12327556322720358	-0.45452744439412207	0.9655868079633031	0.061161657228076885	-0.4075887451123516	0.6922215963006869	0.13238640317955913	-0.4440586065720354	0.7539567733078906	0.10206355405043847	-0.5184042024958946	1.0196436275077563	-0.030713630689723583	0.3972947128941683	0.908756890381587	-0.05697382009768234	0.006836047943328982	0.9167375756172951	-0.08097836450751214	-0.4125856181682324	0.9378892720090607	-0.07127984295960076	-0.41902425204944294	0.7537629306973698	-0.12430012096768783	-0.4289139565175473	0.7976314056999109	-0.0621790005151048	-0.4866612716579283	0.9972747704948616	0.1393754015395674	1.0789412433277872	0.8606540989428194	0.14006483719072338	1.3514583154083208	0.833386669740222	0.12307548047356695	1.2189780610599839	0.7450731268999934	0.2951004732520057	0.9658861646186203	0.8636698083204448	0.32773889784409516	0.6650384316945932	0.8097299875933109	0.11931197041643232	0.5360954456895315	0.6574030339577539	0.044186229819257045	0.45729771335127334	0.7174370262336197	0.047601640129696775	0.4183650056634145	0.7286608846220395	0.02649837436180356	0.45567238547091626	0.6701953780524376	-0.027775357496695966	0.9773824743903269	0.8946839527252619	-0.0762265327476723	0.700260203520476	0.8437264968895836	0.03684276881017095	0.5008240071958994	0.7131662589494656	0.08785471583612042	0.435583192368917	0.7084722463255994	0.09405822267626096	0.3954250562496111	0.7201950871534446	0.09197029423982302	0.37410260863148026	0.7226784715679921	
273	5.808510638297872	0.20639876223957546	0.40964490318593777	0.8375687817016562	0.17603839452303913	-0.004343938920154666	0.9068185124363529	0.12327514635266952	-0.4545235528319372	0.9655844534829173	0.06087496101354897	-0.4071423896600169	0.6914408904494086	0.13235124188583147	-0.444046572763779	0.7539131611060512	0.10205853689656097	-0.5184162958054431	1.0196454666789663	-0.030700644149161193	0.3974302327801128	0.9085510185535484	-0.05696821489193512	0.0068151794099675644	0.9167545236215684	-0.08098207697620924	-0.41257402574646307	0.9378835996757262	-0.07134112950424099	-0.4188683117179763	0.7535431376363231	-0.12435672511481027	-0.4288659884822589	0.7974697629779464	-0.06219541810560125	-0.4866620696193553	0.997242659220854	0.13935176317954162	1.07883885797999	0.860659062437533	0.14006520494260327	1.3519117552134445	0.833541855773857	0.12308598517243104	1.2189673726724042	0.7450786638951903	0.294673824184537	0.9659805455641235	0.863675082030049	0.3283072194205243	0.6655001572324131	0.8104135987576349	0.11932219577392744	0.5354818992676973	0.657478567031905	0.04153807679533317	0.45659828988208	0.7156782144694446	0.046382389704518905	0.4188582666501013	0.7263215314064125	0.02636768204202563	0.4549683701063346	0.6697651069264552	-0.027782491348617495	0.977374604436202	0.8946896139497611	-0.07633490000659088	0.7002833055573435	0.8437418837208235	0.03653194164374484	0.5011202841825629	0.7117036924101862	0.08821299016378853	0.4349071702911228	0.7082829658903411	0.09425258239194707	0.39392182867102754	0.7220698601481618	0.0917070808875649	0.3736446315224325	0.7222223294494761	
274	5.829787234042553	0.20644854088214723	0.409955341098897	0.8369816794971097	0.17602701581735442	-0.004362856104820123	0.9068782160003457	0.12327325429914757	-0.45452245953825116	0.9655854047604358	0.06102288391145924	-0.40743191939642814	0.6917879520470043	0.13235017400655724	-0.44402632984755697	0.7538886522883691	0.10205117435221608	-0.5184314946716005	1.0196477039877678	-0.0306937987282117	0.39749958095524485	0.9084393977404708	-0.05697861385078856	0.006788835671487914	0.9167833408006492	-0.08098809725476822	-0.4125618839261902	0.937876404606607	-0.07161597617845762	-0.41810113958896233	0.7523978406005545	-0.12468478906626379	-0.42818934053596375	0.7962033525767144	-0.062265416087893134	-0.48670461223195693	0.9973614071891986	0.13932552098334755	1.0787467893449585	0.8606738593998786	0.14007919835586274	1.3524790484719946	0.8337341326901517	0.12308326195530261	1.218979269906168	0.7450650799590828	0.29387712115138687	0.9660732966412637	0.8635029514364561	0.32819682850760723	0.6660389934095892	0.8096263402365331	0.1189108949168067	0.5351323828892789	0.6571276642766644	0.040238454209146984	0.45517482066765763	0.7128878295548489	0.045811049628894734	0.4187516944217382	0.7229774434590701	0.026441353449366732	0.4535618331191753	0.6699075044219921	-0.02779252414823303	0.977368006401055	0.894685854869282	-0.07628732036438073	0.7001048206052883	0.8438028593910307	0.0367883439163449	0.5012490752515002	0.7099606584917499	0.08898302004762751	0.43275311880322415	0.7084603264128613	0.09474803856155961	0.39168090561363367	0.7237739027048556	0.09138830042192472	0.3725254110004288	0.7217455970510562	
